<mxfile host="65bd71144e">
    <diagram id="f1huL6eBQzoEtvKntgui" name="Page-1">
        <mxGraphModel dx="1123" dy="451" grid="1" gridSize="10" guides="1" tooltips="1" connect="1" arrows="1" fold="1" page="1" pageScale="1" pageWidth="850" pageHeight="1100" math="0" shadow="0">
            <root>
                <mxCell id="0"/>
                <mxCell id="1" parent="0"/>
                <mxCell id="13" value="" style="edgeStyle=none;html=1;fontFamily=Helvetica;fontSize=19;exitX=0.5;exitY=1;exitDx=0;exitDy=0;" parent="1" source="19" target="5" edge="1">
                    <mxGeometry relative="1" as="geometry">
                        <mxPoint x="160" y="120" as="sourcePoint"/>
                    </mxGeometry>
                </mxCell>
                <mxCell id="5" value="Список работ клиента" style="rounded=0;whiteSpace=wrap;html=1;fontFamily=Helvetica;" parent="1" vertex="1">
                    <mxGeometry x="100" y="140" width="120" height="60" as="geometry"/>
                </mxCell>
                <mxCell id="6" value="" style="endArrow=classic;html=1;fontFamily=Helvetica;entryX=0.5;entryY=0;entryDx=0;entryDy=0;exitX=0.5;exitY=1;exitDx=0;exitDy=0;" parent="1" source="8" target="7" edge="1">
                    <mxGeometry width="50" height="50" relative="1" as="geometry">
                        <mxPoint x="159.5" y="220" as="sourcePoint"/>
                        <mxPoint x="159.5" y="300" as="targetPoint"/>
                    </mxGeometry>
                </mxCell>
                <mxCell id="7" value="Выбор комплектации" style="rounded=0;whiteSpace=wrap;html=1;fontFamily=Helvetica;" parent="1" vertex="1">
                    <mxGeometry x="115" y="340" width="90" height="60" as="geometry"/>
                </mxCell>
                <mxCell id="8" value="Выбор протеза" style="rounded=0;whiteSpace=wrap;html=1;fontFamily=Helvetica;" parent="1" vertex="1">
                    <mxGeometry x="125" y="240" width="70" height="60" as="geometry"/>
                </mxCell>
                <mxCell id="9" value="" style="endArrow=classic;html=1;fontFamily=Helvetica;entryX=0.5;entryY=0;entryDx=0;entryDy=0;exitX=0.5;exitY=1;exitDx=0;exitDy=0;" parent="1" source="5" target="8" edge="1">
                    <mxGeometry width="50" height="50" relative="1" as="geometry">
                        <mxPoint x="130" y="220" as="sourcePoint"/>
                        <mxPoint x="80" y="270" as="targetPoint"/>
                    </mxGeometry>
                </mxCell>
                <mxCell id="10" value="" style="endArrow=none;dashed=1;html=1;fontFamily=Helvetica;" parent="1" edge="1">
                    <mxGeometry width="50" height="50" relative="1" as="geometry">
                        <mxPoint x="-10" y="120" as="sourcePoint"/>
                        <mxPoint x="840" y="120" as="targetPoint"/>
                    </mxGeometry>
                </mxCell>
                <mxCell id="18" value="Склад" style="rounded=0;whiteSpace=wrap;html=1;fontFamily=Helvetica;fontSize=12;" parent="1" vertex="1">
                    <mxGeometry x="310" y="40" width="80" height="60" as="geometry"/>
                </mxCell>
                <mxCell id="19" value="&lt;span style=&quot;color: rgb(0, 0, 0); font-family: Helvetica; font-size: 12px; font-style: normal; font-variant-ligatures: normal; font-variant-caps: normal; font-weight: 400; letter-spacing: normal; orphans: 2; text-align: center; text-indent: 0px; text-transform: none; widows: 2; word-spacing: 0px; -webkit-text-stroke-width: 0px; background-color: rgb(251, 251, 251); text-decoration-thickness: initial; text-decoration-style: initial; text-decoration-color: initial; float: none; display: inline !important;&quot;&gt;Главная.&lt;/span&gt;&lt;br style=&quot;border-color: var(--border-color); color: rgb(0, 0, 0); font-family: Helvetica; font-size: 12px; font-style: normal; font-variant-ligatures: normal; font-variant-caps: normal; font-weight: 400; letter-spacing: normal; orphans: 2; text-align: center; text-indent: 0px; text-transform: none; widows: 2; word-spacing: 0px; -webkit-text-stroke-width: 0px; background-color: rgb(251, 251, 251); text-decoration-thickness: initial; text-decoration-style: initial; text-decoration-color: initial;&quot;&gt;&lt;br style=&quot;border-color: var(--border-color); color: rgb(0, 0, 0); font-family: Helvetica; font-size: 12px; font-style: normal; font-variant-ligatures: normal; font-variant-caps: normal; font-weight: 400; letter-spacing: normal; orphans: 2; text-align: center; text-indent: 0px; text-transform: none; widows: 2; word-spacing: 0px; -webkit-text-stroke-width: 0px; background-color: rgb(251, 251, 251); text-decoration-thickness: initial; text-decoration-style: initial; text-decoration-color: initial;&quot;&gt;&lt;span style=&quot;color: rgb(0, 0, 0); font-family: Helvetica; font-size: 12px; font-style: normal; font-variant-ligatures: normal; font-variant-caps: normal; font-weight: 400; letter-spacing: normal; orphans: 2; text-align: center; text-indent: 0px; text-transform: none; widows: 2; word-spacing: 0px; -webkit-text-stroke-width: 0px; background-color: rgb(251, 251, 251); text-decoration-thickness: initial; text-decoration-style: initial; text-decoration-color: initial; float: none; display: inline !important;&quot;&gt;Список клиентов&lt;/span&gt;" style="rounded=0;whiteSpace=wrap;html=1;fontFamily=Helvetica;fontSize=12;" parent="1" vertex="1">
                    <mxGeometry x="100" y="40" width="120" height="60" as="geometry"/>
                </mxCell>
                <mxCell id="20" value="Заказы" style="rounded=0;whiteSpace=wrap;html=1;fontFamily=Helvetica;fontSize=12;" parent="1" vertex="1">
                    <mxGeometry x="470" y="40" width="120" height="60" as="geometry"/>
                </mxCell>
                <mxCell id="21" value="" style="endArrow=classic;html=1;fontFamily=Helvetica;fontSize=12;exitX=0.5;exitY=1;exitDx=0;exitDy=0;entryX=0.5;entryY=0;entryDx=0;entryDy=0;" parent="1" source="20" target="22" edge="1">
                    <mxGeometry width="50" height="50" relative="1" as="geometry">
                        <mxPoint x="260" y="280" as="sourcePoint"/>
                        <mxPoint x="480" y="160" as="targetPoint"/>
                    </mxGeometry>
                </mxCell>
                <mxCell id="22" value="По поставщикам" style="rounded=0;whiteSpace=wrap;html=1;fontFamily=Helvetica;fontSize=12;" parent="1" vertex="1">
                    <mxGeometry x="470" y="140" width="120" height="60" as="geometry"/>
                </mxCell>
                <mxCell id="24" value="" style="endArrow=classic;html=1;fontFamily=Helvetica;fontSize=12;exitX=0.5;exitY=1;exitDx=0;exitDy=0;" parent="1" source="18" edge="1">
                    <mxGeometry width="50" height="50" relative="1" as="geometry">
                        <mxPoint x="260" y="280" as="sourcePoint"/>
                        <mxPoint x="350" y="140" as="targetPoint"/>
                    </mxGeometry>
                </mxCell>
                <mxCell id="25" value="Комплектующие в наличии" style="rounded=0;whiteSpace=wrap;html=1;fontFamily=Helvetica;fontSize=12;" parent="1" vertex="1">
                    <mxGeometry x="290" y="140" width="120" height="60" as="geometry"/>
                </mxCell>
                <mxCell id="26" value="" style="endArrow=classic;html=1;fontFamily=Helvetica;fontSize=12;exitX=0.5;exitY=1;exitDx=0;exitDy=0;" parent="1" source="25" edge="1">
                    <mxGeometry width="50" height="50" relative="1" as="geometry">
                        <mxPoint x="260" y="280" as="sourcePoint"/>
                        <mxPoint x="350" y="240" as="targetPoint"/>
                    </mxGeometry>
                </mxCell>
                <mxCell id="27" value="" style="rounded=0;whiteSpace=wrap;html=1;fontFamily=Helvetica;fontSize=12;" parent="1" vertex="1">
                    <mxGeometry x="290" y="240" width="120" height="60" as="geometry"/>
                </mxCell>
                <mxCell id="28" value="" style="endArrow=classic;html=1;fontFamily=Helvetica;fontSize=12;exitX=0.5;exitY=1;exitDx=0;exitDy=0;entryX=0.5;entryY=0;entryDx=0;entryDy=0;" parent="1" source="22" target="29" edge="1">
                    <mxGeometry width="50" height="50" relative="1" as="geometry">
                        <mxPoint x="480" y="450" as="sourcePoint"/>
                        <mxPoint x="530" y="240" as="targetPoint"/>
                    </mxGeometry>
                </mxCell>
                <mxCell id="29" value="Сохранить как .xlsx" style="rounded=0;whiteSpace=wrap;html=1;fontFamily=Helvetica;fontSize=12;" parent="1" vertex="1">
                    <mxGeometry x="700" y="260" width="120" height="60" as="geometry"/>
                </mxCell>
                <mxCell id="30" value="Что нужно" style="swimlane;fontStyle=0;childLayout=stackLayout;horizontal=1;startSize=26;fillColor=none;horizontalStack=0;resizeParent=1;resizeParentMax=0;resizeLast=0;collapsible=1;marginBottom=0;html=1;fontFamily=Helvetica;fontSize=12;" parent="1" vertex="1">
                    <mxGeometry x="420" y="240" width="220" height="156" as="geometry"/>
                </mxCell>
                <mxCell id="32" value="Поставщик" style="text;strokeColor=none;fillColor=none;align=left;verticalAlign=top;spacingLeft=4;spacingRight=4;overflow=hidden;rotatable=0;points=[[0,0.5],[1,0.5]];portConstraint=eastwest;whiteSpace=wrap;html=1;fontFamily=Helvetica;fontSize=12;" parent="30" vertex="1">
                    <mxGeometry y="26" width="220" height="26" as="geometry"/>
                </mxCell>
                <mxCell id="31" value="Статусы комплектующих в заказе&lt;br&gt;" style="text;strokeColor=none;fillColor=none;align=left;verticalAlign=top;spacingLeft=4;spacingRight=4;overflow=hidden;rotatable=0;points=[[0,0.5],[1,0.5]];portConstraint=eastwest;whiteSpace=wrap;html=1;fontFamily=Helvetica;fontSize=12;" parent="30" vertex="1">
                    <mxGeometry y="52" width="220" height="26" as="geometry"/>
                </mxCell>
                <mxCell id="37" value="Итоговая цена&lt;br&gt;" style="text;strokeColor=none;fillColor=none;align=left;verticalAlign=top;spacingLeft=4;spacingRight=4;overflow=hidden;rotatable=0;points=[[0,0.5],[1,0.5]];portConstraint=eastwest;whiteSpace=wrap;html=1;fontFamily=Helvetica;fontSize=12;" parent="30" vertex="1">
                    <mxGeometry y="78" width="220" height="26" as="geometry"/>
                </mxCell>
                <mxCell id="40" value="Номер счёта" style="text;strokeColor=none;fillColor=none;align=left;verticalAlign=top;spacingLeft=4;spacingRight=4;overflow=hidden;rotatable=0;points=[[0,0.5],[1,0.5]];portConstraint=eastwest;whiteSpace=wrap;html=1;fontFamily=Helvetica;fontSize=12;" parent="30" vertex="1">
                    <mxGeometry y="104" width="220" height="26" as="geometry"/>
                </mxCell>
                <mxCell id="39" value="List Item" style="text;strokeColor=none;fillColor=none;align=left;verticalAlign=top;spacingLeft=4;spacingRight=4;overflow=hidden;rotatable=0;points=[[0,0.5],[1,0.5]];portConstraint=eastwest;whiteSpace=wrap;html=1;fontFamily=Helvetica;fontSize=12;" parent="30" vertex="1">
                    <mxGeometry y="130" width="220" height="26" as="geometry"/>
                </mxCell>
                <mxCell id="35" value="" style="endArrow=classic;html=1;fontFamily=Helvetica;fontSize=12;exitX=0.5;exitY=1;exitDx=0;exitDy=0;" parent="1" source="22" target="30" edge="1">
                    <mxGeometry width="50" height="50" relative="1" as="geometry">
                        <mxPoint x="410" y="450" as="sourcePoint"/>
                        <mxPoint x="460" y="400" as="targetPoint"/>
                    </mxGeometry>
                </mxCell>
            </root>
        </mxGraphModel>
    </diagram>
</mxfile>